<svg xmlns="http://www.w3.org/2000/svg" viewBox="0 0 200 50" fill="none">
  <!-- FedEx wordmark -->
  <g fill="#FF6600">
    <!-- F -->
    <path d="M10 10h25v6h-18v8h15v6h-15v10h-7V10z"/>
    <!-- e -->
    <path d="M40 24c0-8 6-14 14-14 7 0 13 5 13 13 0 1 0 2-.2 3H47c.5 4 3.5 6 7 6 2.5 0 5-1 6.5-2.5l3.5 4c-2.5 2.5-6 4-10.5 4-8.5 0-13.5-6-13.5-13.5zm20-3c-.5-3-3-5-6-5s-5.5 2-6.5 5h12.5z"/>
    <!-- d -->
    <path d="M70 10h7v5c1.5-3.5 5-5.5 9-5.5v7c-.5 0-1-.1-1.5-.1-4 0-7 2.5-7.5 7V40h-7V10z"/>
    <!-- E -->
    <path d="M90 10h25v6h-18v7h15v6h-15v7h18v6H90V10z"/>
    <!-- x -->
    <path d="M120 10h8l6 9 6-9h8l-10 15 11 15h-8l-7-10-7 10h-8l11-15-10-15z"/>
  </g>
  <!-- Arrow (hidden between E and x) -->
  <path d="M105 20l-3 5h6l-3-5z" fill="#FF6600"/>
</svg>
