<svg xmlns="http://www.w3.org/2000/svg" viewBox="0 0 500 150" fill="none">
  <!-- Fed in purple -->
  <g fill="#4D148C">
    <!-- F -->
    <path d="M30 30h80v20h-55v25h50v20h-50v30h-25V30z"/>
    <!-- e -->
    <path d="M120 75c0-30 20-45 45-45 25 0 42 15 42 40 0 3-1 7-1 10h-60c2 12 12 18 25 18 10 0 18-4 23-10l12 15c-10 10-23 15-37 15-30 0-49-20-49-43zm70-10c-2-10-10-15-22-15-12 0-20 5-24 15h46z"/>
    <!-- d -->
    <path d="M215 75c0-30 20-45 45-45 15 0 25 5 32 15V0h25v118h-25v-12c-7 10-17 15-32 15-25 0-45-15-45-46zm70 0c0-18-10-28-27-28s-27 10-27 28 10 28 27 28 27-10 27-28z"/>
  </g>
  <!-- Ex in orange -->
  <g fill="#FF6600">
    <!-- E -->
    <path d="M340 30h80v20h-55v20h50v18h-50v22h55v20h-80V30z"/>
    <!-- x -->
    <path d="M435 30h28l22 30 22-30h28l-36 44 38 44h-28l-24-32-24 32h-28l38-44-36-44z"/>
  </g>
</svg>
