<svg viewBox="0 0 98 35" xmlns="http://www.w3.org/2000/svg">
  <defs>
    <style>.d{fill:#009}</style>
  </defs>
  <path d="M3.9 15H0v13.8h3.9Z" style="fill:#3c6"/>
  <path class="d" d="M13.8 15a5 5 0 0 1-1.4 3.5A5.1 5.1 0 0 1 8.9 20a8.8 8.8 0 0 0-6.3 2.6A8.7 8.7 0 0 0 0 28.8h3.9a5.2 5.2 0 0 1 1.4-3.5 5.8 5.8 0 0 1 3.6-1.5 8.5 8.5 0 0 0 6.2-2.6 8.5 8.5 0 0 0 2.6-6.2Z"/>
  <path d="M8.9 6.2a8.6 8.6 0 0 0-6.3 2.6A8.5 8.5 0 0 0 0 15h3.9a5 5 0 0 1 1.4-3.5A5.3 5.3 0 0 1 8.9 10a5.1 5.1 0 0 1 3.5 1.5 5 5 0 0 1 1.4 3.5h3.9a8.5 8.5 0 0 0-2.6-6.2 8.5 8.5 0 0 0-6.2-2.6Z" style="fill:#39f"/>
  <path class="d" d="m67.9 13.9-1.4 1.7a3.2 3.2 0 0 0-2.3-.9c-.7 0-1.1.2-1.1.7s.3.6 1.1.9l1 .4c2 .8 2.9 1.6 2.9 3.1a3.2 3.2 0 0 1-.3 1.4 3.1 3.1 0 0 1-.9 1.1 4.1 4.1 0 0 1-2.9.8 5.1 5.1 0 0 1-4.3-2l1.5-1.7a3.8 3.8 0 0 0 2.9 1.4c.7 0 1.3-.3 1.3-.8s-.3-.6-1.1-1l-1.1-.4c-1.9-.8-2.8-1.6-2.8-3.1s1.5-3.1 3.8-3.1a4.7 4.7 0 0 1 3.7 1.5ZM47.5 12.7h-2.6v1.1c-1.4-1.8-5-1.9-6.9.2a5.8 5.8 0 0 0 0 7.7c1.9 2.1 5.5 1.9 6.9.1v1.1h2.6Zm-5.4 7.9c-3.6 0-3.6-5.6 0-5.6s3.5 5.6 0 5.6ZM24.3 26.1h2.6v-4.3c1.4 1.8 5 2 7-.1a6 6 0 0 0 0-7.7c-2-2.1-5.6-1.9-7-.2v-1.1h-2.6ZM29.7 15c3.6 0 3.6 5.6 0 5.6s-3.5-5.6 0-5.6ZM98 12.7h-2.6v1.1c-1.4-1.8-5-2-6.9.1a5.8 5.8 0 0 0 0 7.7c1.9 2.1 5.5 1.9 6.9.2v1.1H98Zm-5.4 7.9c-3.6 0-3.6-5.6 0-5.6s3.5 5.6 0 5.6ZM57 12.6l-2.7 6.8-2.6-6.8h-2.9l3.9 9.7c-.1.7-.7 1.4-2.5 1.5v2.4a4.9 4.9 0 0 0 5-3l4.7-10.6ZM86.2 15.2v-2.7h-.9l-1.8.3a5.6 5.6 0 0 0-1.5 1 4.2 4.2 0 0 0-1.1 1.6 6.3 6.3 0 0 0-.3 1.9V23h2.8v-5.9a2.4 2.4 0 0 1 .2-.8c0-.2.2-.4.4-.6a1.5 1.5 0 0 1 .6-.5h1.6ZM74.4 12.4a5.2 5.2 0 0 0-5 3.3 4.2 4.2 0 0 0-.3 3.1 5.1 5.1 0 0 0 1.5 2.8 6.5 6.5 0 0 0 8.1.2l-1.1-1.9c-1.5 1.1-5.1 1.5-5.8-1.2h7.4a6.3 6.3 0 0 0-.6-3.9 4.6 4.6 0 0 0-4.2-2.4Zm-.1 2.2a2.1 2.1 0 0 1 2.2 2h-4.7a2.6 2.6 0 0 1 2.5-2Z"/>
</svg>
