<svg width="32" height="32" viewBox="0 0 32 32" fill="none" xmlns="http://www.w3.org/2000/svg">
<path d="M9.50411 12.4812H4V32H9.50411V12.4812Z" fill="#33CC66"/>
<path d="M23.5176 12.4812C23.5223 13.3997 23.3453 14.3101 22.9967 15.1598C22.6482 16.0096 22.135 16.782 21.4866 17.4326C20.1685 18.7552 18.3836 19.507 16.5164 19.526C13.1873 19.548 10.0021 20.8722 7.65675 23.2095C5.31184 25.5468 3.9972 28.7068 4 32H9.50412C9.5009 31.0813 9.67919 30.1711 10.0288 29.3215C10.3783 28.472 10.8923 27.6998 11.5411 27.0494C12.86 25.7272 14.645 24.9752 16.5124 24.9549C19.8416 24.9341 23.0264 23.6099 25.3709 21.2721C27.715 18.9344 29.0277 15.7736 29.0217 12.4812H23.5176V12.4812Z" fill="#000099"/>
<path d="M16.513 0C13.1842 0.0219972 9.99939 1.34623 7.65568 3.68354C5.31197 6.02165 3.99894 9.18205 4.00414 12.474H9.50425C9.50002 11.5554 9.67749 10.645 10.0265 9.79529C10.3754 8.94553 10.889 8.17317 11.5376 7.52266C12.8562 6.20015 14.6415 5.44841 16.509 5.42932C18.3807 5.44932 20.1689 6.20123 21.4816 7.52146C22.1303 8.1721 22.6438 8.94467 22.9926 9.79467C23.3413 10.6447 23.5184 11.5553 23.5137 12.474H29.0178C29.0242 9.18245 27.712 6.02205 25.3687 3.68434C23.025 1.34703 19.8414 0.0223972 16.513 0.00039995V0Z" fill="#3399FF"/>
</svg>
