<svg width="111" height="22" viewBox="0 0 111 22" fill="none" xmlns="http://www.w3.org/2000/svg">
<path d="M52.502 11.1129V17.6486H47.2878V11.8695C47.2878 10.052 46.6507 9.22455 45.2107 9.22455C43.7233 9.22455 42.9449 10.147 42.9449 11.939V17.6489H37.7554V5.85124H41.4612L42.8046 8.25816C43.7233 6.44065 45.3521 5.49663 47.5705 5.49663C50.8041 5.49663 52.502 7.4326 52.502 11.1129Z" fill="#9339F2"/>
<path d="M54.6212 0.579239H59.9539V4.38756H54.6212V0.579239ZM54.6925 5.85045H59.8841V17.6497H54.6925V5.85045Z" fill="#9339F2"/>
<path d="M71.8924 5.49716C69.9793 5.49716 68.3316 6.20531 67.3399 7.61789V7.62641L67.337 7.62082L66.3483 5.85177H62.2886V21.4575H67.4781V16.211C68.5638 17.3915 69.8842 18.0027 71.7262 18.0027C75.2654 18.0027 77.6497 15.5274 77.6497 11.6554C77.65 7.9536 75.3594 5.49716 71.8924 5.49716ZM69.8627 14.7463C68.3505 14.7463 67.3844 13.6391 67.3844 11.9382V11.5143C67.3844 9.69789 68.3031 8.72911 69.8379 8.72911C71.3964 8.72911 72.2696 9.79187 72.2696 11.6557C72.2699 13.5669 71.3719 14.7463 69.8627 14.7463Z" fill="#9339F2"/>
<path d="M86.0469 5.49156C81.8896 5.49156 79.0844 7.10035 78.7575 9.88291H84.0361C84.1527 8.96417 84.842 8.46554 86.0158 8.46554C87.1041 8.46554 87.7715 8.89975 87.7715 9.81928V10.262L83.5926 10.6669C81.6766 10.8775 80.4498 11.2263 79.6469 11.8189C78.8221 12.4115 78.4202 13.2589 78.4202 14.3701C78.4202 16.6122 80.2395 17.9974 83.2638 17.9974C85.52 17.9974 87.3538 17.1612 87.9965 15.8263V15.8149L87.9994 15.8205C88.0023 15.8176 88.0023 15.812 88.005 15.809V15.8317L89.0185 17.6481H93.0089V10.6451C93.0084 7.15253 90.9039 5.49156 86.0469 5.49156ZM87.8881 13.1955C87.8881 14.3286 86.8717 15.0982 85.3598 15.0982C84.3436 15.0982 83.7092 14.6544 83.7092 13.9463C83.7092 13.2589 84.3018 12.858 85.6233 12.6665L87.8881 12.4115V13.1955Z" fill="#9339F2"/>
<path d="M102.012 13.0528L100.14 14.7471V17.65H94.9499V0.542496H100.14V9.98117L104.129 5.85045H110.359L106.047 9.96972L110.453 17.65H104.719L102.012 13.0528Z" fill="#9339F2"/>
<path d="M19.8522 0.579514V17.65H10.1034L0.23715 0.579514H6.08554L14.5754 15.3623V0.579514H19.8522Z" fill="#9339F2"/>
<path d="M36.2758 11.8383C36.2758 7.89263 33.8004 5.46095 29.3114 5.32704C29.1815 5.32225 29.046 5.32039 28.9104 5.32039C28.497 5.32039 28.0846 5.34222 27.7055 5.3944C23.8535 5.78495 21.4304 8.12558 21.4304 11.6259C21.4304 15.5186 25.0255 17.8251 29.1759 17.8251C30.9801 17.8251 32.6884 17.609 34.6481 16.1064C34.8291 15.969 35.0141 15.8184 35.2 15.656L33.3561 12.6421C33.2262 12.7927 33.0811 12.9522 32.9182 13.1141C32.2148 13.8081 31.1832 14.5144 29.6521 14.5144C28.0016 14.5144 26.5312 13.5275 26.3406 12.3529H36.276V11.8383H36.2758ZM26.3401 9.87493C26.4567 8.60452 27.3347 8.06036 28.838 8.06036C30.3302 8.06036 31.2282 8.76478 31.2282 9.87493H26.3401Z" fill="#9339F2"/>
</svg>
